<svg width="332" height="229" viewBox="0 0 332 229" fill="none" xmlns="http://www.w3.org/2000/svg">
<g filter="url(#filter0_d_587_488)">
<path d="M24.9248 128.207C22.6445 128.207 20.5068 127.732 18.5115 126.782C16.6113 125.737 15.6612 124.217 15.6612 122.222L8.99856 18.0424C8.99856 15.9522 4.57395 9.92958 6.47418 9.07448C8.46942 8.12436 6.47418 6.66669 13.6963 4.25921C16.0716 4.25921 16.6109 3.31007 18.5111 4.26018C20.4113 5.11529 31.3381 64.408 31.3381 66.4982L53.7714 19.8957C55.0065 18.0905 56.6692 17.1879 58.7595 17.1879C60.3747 17.1879 61.9898 17.6629 63.605 18.6131C65.3153 19.5632 66.7404 20.7508 67.8806 22.176C69.0207 23.6012 69.5908 25.1213 69.5908 26.7365C69.5908 27.2116 69.4958 27.7817 69.3057 28.4468C69.1157 29.1118 68.7832 29.7294 68.3081 30.2995L44.5643 66.4982L78.9014 105.37C79.5665 106.415 85.5153 107.879 81.2772 109.031C77.0391 110.184 107.357 128.019 106.217 129.444C105.172 130.869 103.794 132.057 102.084 133.007C100.374 133.862 91.3471 133.007 89.5419 133.007C88.2117 133.007 94.2454 134.004 93.1053 133.434C92.0602 132.864 91.11 131.962 90.2549 130.726L81.2772 123.377L34.1884 85.0254V122.222C34.1884 124.217 33.2383 125.737 31.3381 126.782C29.4379 127.732 27.3001 128.207 24.9248 128.207Z" fill="#48B57B"/>
<path d="M98.5381 120.37C96.8279 120.37 95.0702 120.038 93.265 119.372C91.4597 118.707 89.9395 117.805 88.7044 116.665C87.4692 115.524 86.8516 114.194 86.8516 112.674C86.8516 112.389 86.8992 111.914 86.9942 111.249L114.673 6.27125C115.338 4.18099 116.811 2.6133 119.091 1.56817C121.466 0.523042 123.984 0.000488281 126.645 0.000488281C129.4 0.000488281 131.918 0.523042 134.198 1.56817C136.478 2.6133 137.951 4.18099 138.616 6.27125L165.949 111.249C166.139 111.914 166.234 112.389 166.234 112.674C166.234 114.099 165.569 115.429 164.239 116.665C163.003 117.805 161.483 118.707 159.678 119.372C157.873 120.038 156.115 120.37 154.405 120.37C152.885 120.37 151.554 120.133 150.414 119.657C149.369 119.087 148.657 118.09 148.277 116.665L142.861 97.7098H110.082L104.809 116.665C104.429 118.09 103.669 119.087 102.529 119.657C101.388 120.133 100.058 120.37 98.5381 120.37ZM114.072 83.173H138.87L126.471 39.4203L114.072 83.173Z" fill="#48B57B"/>
<path d="M182.444 118.659C180.449 118.659 178.596 118.184 176.886 117.234C175.176 116.189 174.321 114.668 174.321 112.673V20.3219C174.321 18.2317 175.271 16.759 177.171 15.9039C179.166 14.9538 181.304 14.4787 183.584 14.4787C185.96 14.4787 188.097 14.9538 189.998 15.9039C191.898 16.759 192.848 18.2317 192.848 20.3219V102.412L222.205 103.125C224.106 103.125 225.483 103.981 226.338 105.691C227.193 107.306 227.621 109.159 227.621 111.249C227.621 113.244 227.193 115.097 226.338 116.807C225.483 118.517 224.106 119.372 222.205 119.372L182.444 118.659Z" fill="#48B57B"/>
<path d="M263.215 124.218C257.04 124.218 251.434 123.315 246.398 121.51C241.458 119.705 237.515 117.472 234.569 114.812C231.719 112.056 230.294 109.301 230.294 106.546C230.294 105.215 230.626 103.79 231.291 102.27C232.052 100.655 233.049 99.3248 234.284 98.2796C235.52 97.1395 236.897 96.5694 238.417 96.5694C239.938 96.5694 241.363 97.1395 242.693 98.2796C244.023 99.3248 245.543 100.607 247.253 102.128C248.964 103.553 251.054 104.835 253.524 105.976C255.994 107.021 259.035 107.543 262.645 107.543C265.496 107.543 268.108 107.116 270.484 106.261C272.954 105.311 274.902 103.933 276.327 102.128C277.847 100.322 278.607 97.9946 278.607 95.1443C278.607 92.1039 277.8 89.5386 276.184 87.4483C274.569 85.3581 272.384 83.5529 269.629 82.0327C266.873 80.5125 263.88 79.0399 260.65 77.6147C257.42 76.1895 254.142 74.6693 250.816 73.0541C247.586 71.4389 244.593 69.4912 241.838 67.2109C239.177 64.9306 236.992 62.1278 235.282 58.8024C233.667 55.477 232.859 51.3915 232.859 46.5459C232.859 41.2253 233.857 36.7597 235.852 33.1493C237.942 29.5388 240.65 26.641 243.976 24.4557C247.396 22.1754 251.149 20.5602 255.234 19.6101C259.32 18.565 263.405 18.0424 267.491 18.0424C269.676 18.0424 272.241 18.2325 275.187 18.6125C278.227 18.8975 281.22 19.4676 284.166 20.3227C287.206 21.1778 289.676 22.3655 291.577 23.8856C293.572 25.3108 294.569 27.2111 294.569 29.5863C294.569 30.6315 294.284 31.9141 293.714 33.4343C293.239 34.9545 292.432 36.3322 291.291 37.5673C290.246 38.8025 288.869 39.42 287.158 39.42C285.638 39.42 284.118 38.9925 282.598 38.1374C281.173 37.1873 279.272 36.2847 276.897 35.4296C274.617 34.4794 271.481 34.0044 267.491 34.0044C264.165 34.0044 261.268 34.4319 258.797 35.287C256.327 36.1421 254.474 37.3773 253.239 38.9925C252.004 40.5127 251.386 42.4604 251.386 44.8357C251.386 47.306 252.194 49.3963 253.809 51.1065C255.519 52.8167 257.705 54.3368 260.365 55.667C263.12 56.9972 266.113 58.3273 269.344 59.6575C272.574 60.9876 275.804 62.5553 279.035 64.3606C282.36 66.0708 285.401 68.161 288.156 70.6313C290.911 73.1016 293.097 76.1895 294.712 79.8949C296.327 83.5054 297.135 87.9709 297.135 93.2915C297.135 100.037 295.662 105.738 292.717 110.394C289.771 114.954 285.733 118.422 280.602 120.797C275.567 123.078 269.771 124.218 263.215 124.218Z" fill="#48B57B"/>
<path d="M310.597 122.936C308.317 122.936 306.179 122.46 304.184 121.51C302.283 120.465 301.333 118.945 301.333 116.95V24.5986C301.333 22.5084 302.283 21.0357 304.184 20.1806C306.179 19.2305 308.317 18.7554 310.597 18.7554C312.972 18.7554 315.11 19.2305 317.01 20.1806C318.911 21.0357 319.861 22.5084 319.861 24.5986V116.95C319.861 118.945 318.911 120.465 317.01 121.51C315.11 122.46 312.972 122.936 310.597 122.936Z" fill="#48B57B"/>
</g>
<path d="M18.0289 211.544C14.6906 211.544 11.6605 211.056 8.93855 210.08C6.26796 209.104 4.13662 207.898 2.54453 206.46C1.0038 204.97 0.233441 203.481 0.233441 201.991C0.233441 201.272 0.413193 200.502 0.772696 199.68C1.18356 198.807 1.72281 198.088 2.39046 197.523C3.05811 196.907 3.80279 196.599 4.62452 196.599C5.44624 196.599 6.2166 196.907 6.93561 197.523C7.65461 198.088 8.47634 198.782 9.40077 199.603C10.3252 200.374 11.4551 201.067 12.7904 201.683C14.1257 202.248 15.7691 202.531 17.7207 202.531C19.2614 202.531 20.6738 202.3 21.9577 201.837C23.293 201.324 24.3458 200.579 25.1162 199.603C25.9379 198.627 26.3488 197.369 26.3488 195.828C26.3488 194.185 25.9122 192.798 25.0392 191.669C24.1661 190.539 22.9849 189.563 21.4955 188.741C20.0061 187.919 18.3884 187.123 16.6422 186.353C14.896 185.583 13.1242 184.761 11.3267 183.888C9.58052 183.015 7.96276 181.962 6.47339 180.729C5.03538 179.497 3.85415 177.982 2.92972 176.184C2.05664 174.387 1.6201 172.178 1.6201 169.559C1.6201 166.683 2.15935 164.269 3.23786 162.318C4.36773 160.366 5.83142 158.8 7.62894 157.618C9.47781 156.386 11.5064 155.513 13.7148 154.999C15.9232 154.434 18.1316 154.152 20.3399 154.152C21.5212 154.152 22.9078 154.255 24.4999 154.46C26.1434 154.614 27.7611 154.922 29.3532 155.384C30.9966 155.847 32.3319 156.489 33.3591 157.31C34.4376 158.081 34.9769 159.108 34.9769 160.392C34.9769 160.957 34.8228 161.65 34.5146 162.472C34.2579 163.293 33.8213 164.038 33.205 164.706C32.6401 165.373 31.8954 165.707 30.971 165.707C30.1492 165.707 29.3275 165.476 28.5058 165.014C27.7354 164.5 26.7083 164.012 25.4243 163.55C24.1918 163.037 22.497 162.78 20.3399 162.78C18.5424 162.78 16.976 163.011 15.6407 163.473C14.3054 163.935 13.304 164.603 12.6363 165.476C11.9687 166.298 11.6348 167.351 11.6348 168.635C11.6348 169.97 12.0714 171.1 12.9444 172.024C13.8689 172.949 15.0501 173.77 16.4881 174.489C17.9775 175.208 19.5953 175.927 21.3414 176.646C23.0876 177.365 24.8337 178.213 26.5799 179.189C28.3774 180.113 30.0209 181.243 31.5102 182.578C32.9996 183.914 34.1808 185.583 35.0539 187.586C35.927 189.537 36.3635 191.951 36.3635 194.827C36.3635 198.473 35.5675 201.555 33.9754 204.071C32.3833 206.537 30.2006 208.411 27.4273 209.695C24.7053 210.928 21.5725 211.544 18.0289 211.544ZM48.2626 210.851C47.03 210.851 45.8745 210.594 44.796 210.08C43.7688 209.515 43.2553 208.694 43.2553 207.615V157.695C43.2553 156.822 43.6148 156.078 44.3338 155.461C45.0528 154.845 45.9772 154.537 47.1071 154.537H62.5144C65.8012 154.537 68.7543 155.102 71.3735 156.232C74.0441 157.362 76.1498 159.211 77.6905 161.778C79.2313 164.295 80.0016 167.659 80.0016 171.87V172.332C80.0016 176.544 79.2056 179.933 77.6135 182.501C76.0214 185.069 73.8387 186.944 71.0654 188.125C68.3434 189.255 65.2877 189.82 61.8981 189.82H53.27V207.615C53.27 208.694 52.7564 209.515 51.7293 210.08C50.7021 210.594 49.5466 210.851 48.2626 210.851ZM53.27 181.962H61.8981C64.466 181.962 66.4432 181.243 67.8299 179.805C69.2679 178.316 69.9869 176.081 69.9869 173.103V172.255C69.9869 169.225 69.2679 166.991 67.8299 165.553C66.4432 164.064 64.466 163.319 61.8981 163.319H53.27V181.962ZM90.5279 210.851C89.4494 210.851 88.4479 210.594 87.5235 210.08C86.5991 209.515 86.1368 208.694 86.1368 207.615V157.773C86.1368 156.694 86.5991 155.898 87.5235 155.384C88.4479 154.819 89.4494 154.537 90.5279 154.537H117.953C119.083 154.537 119.879 154.999 120.341 155.924C120.855 156.848 121.111 157.824 121.111 158.851C121.111 160.084 120.829 161.136 120.264 162.01C119.75 162.883 118.98 163.319 117.953 163.319H96.1516V178.726H107.861C108.888 178.726 109.659 179.137 110.172 179.959C110.737 180.729 111.02 181.654 111.02 182.732C111.02 183.605 110.763 184.478 110.249 185.352C109.787 186.173 108.991 186.584 107.861 186.584H96.1516V202.068H117.953C118.98 202.068 119.75 202.505 120.264 203.378C120.829 204.251 121.111 205.304 121.111 206.537C121.111 207.564 120.855 208.539 120.341 209.464C119.879 210.388 119.083 210.851 117.953 210.851H90.5279ZM129.375 210.851C128.451 210.851 127.501 210.671 126.525 210.311C125.549 209.952 124.727 209.464 124.06 208.848C123.392 208.231 123.058 207.512 123.058 206.691C123.058 206.537 123.084 206.28 123.135 205.92L138.003 157.464C138.363 156.334 139.159 155.487 140.392 154.922C141.675 154.357 143.036 154.075 144.474 154.075C145.964 154.075 147.325 154.357 148.557 154.922C149.79 155.487 150.586 156.334 150.946 157.464L165.814 205.92C165.916 206.28 165.968 206.537 165.968 206.691C165.968 207.461 165.608 208.18 164.889 208.848C164.221 209.464 163.4 209.952 162.424 210.311C161.448 210.671 160.498 210.851 159.574 210.851C158.752 210.851 158.033 210.722 157.417 210.465C156.852 210.157 156.466 209.618 156.261 208.848L153.334 198.602H135.615L132.765 208.848C132.56 209.618 132.149 210.157 131.532 210.465C130.916 210.722 130.197 210.851 129.375 210.851ZM137.772 190.744H151.177L144.474 167.094L137.772 190.744ZM176.23 210.851C174.998 210.851 173.842 210.594 172.764 210.08C171.737 209.515 171.223 208.694 171.223 207.615V157.695C171.223 156.566 171.737 155.77 172.764 155.307C173.842 154.794 174.998 154.537 176.23 154.537C177.514 154.537 178.67 154.794 179.697 155.307C180.724 155.77 181.238 156.566 181.238 157.695V178.649L197.955 156.001C198.622 155.025 199.521 154.537 200.651 154.537C201.524 154.537 202.397 154.794 203.27 155.307C204.195 155.821 204.965 156.463 205.581 157.233C206.197 158.004 206.506 158.825 206.506 159.698C206.506 159.955 206.454 160.263 206.352 160.623C206.249 160.982 206.069 161.316 205.812 161.624L192.1 178.88L208.894 204.457C209.253 205.021 209.433 205.612 209.433 206.228C209.433 207.05 209.125 207.846 208.509 208.617C207.944 209.387 207.199 210.029 206.275 210.542C205.35 211.005 204.4 211.236 203.424 211.236C202.705 211.236 202.038 211.082 201.421 210.774C200.856 210.465 200.343 209.978 199.88 209.31L185.398 187.354L181.238 192.593V207.615C181.238 208.694 180.724 209.515 179.697 210.08C178.67 210.594 177.514 210.851 176.23 210.851ZM218.195 210.851C217.116 210.851 216.115 210.594 215.19 210.08C214.266 209.515 213.804 208.694 213.804 207.615V157.773C213.804 156.694 214.266 155.898 215.19 155.384C216.115 154.819 217.116 154.537 218.195 154.537H245.62C246.75 154.537 247.546 154.999 248.008 155.924C248.521 156.848 248.778 157.824 248.778 158.851C248.778 160.084 248.496 161.136 247.931 162.01C247.417 162.883 246.647 163.319 245.62 163.319H223.818V178.726H235.528C236.555 178.726 237.325 179.137 237.839 179.959C238.404 180.729 238.686 181.654 238.686 182.732C238.686 183.605 238.43 184.478 237.916 185.352C237.454 186.173 236.658 186.584 235.528 186.584H223.818V202.068H245.62C246.647 202.068 247.417 202.505 247.931 203.378C248.496 204.251 248.778 205.304 248.778 206.537C248.778 207.564 248.521 208.539 248.008 209.464C247.546 210.388 246.75 210.851 245.62 210.851H218.195ZM285.546 211.236C284.878 211.236 284.21 211.03 283.543 210.619C282.926 210.209 282.438 209.618 282.079 208.848L271.14 187.586H264.669V207.615C264.669 208.694 264.155 209.515 263.128 210.08C262.101 210.594 260.945 210.851 259.661 210.851C258.429 210.851 257.273 210.594 256.195 210.08C255.168 209.515 254.654 208.694 254.654 207.615V157.695C254.654 156.822 254.936 156.078 255.501 155.461C256.118 154.845 256.914 154.537 257.889 154.537H273.143C276.532 154.537 279.588 155.025 282.31 156.001C285.083 156.976 287.292 158.646 288.935 161.008C290.579 163.319 291.4 166.529 291.4 170.638C291.4 173.616 290.964 176.159 290.091 178.264C289.218 180.318 288.011 181.988 286.47 183.272C284.981 184.504 283.26 185.429 281.309 186.045L291.477 204.765C291.58 204.97 291.657 205.201 291.708 205.458C291.76 205.663 291.786 205.843 291.786 205.997C291.786 206.819 291.477 207.641 290.861 208.462C290.245 209.284 289.449 209.952 288.473 210.465C287.549 210.979 286.573 211.236 285.546 211.236ZM264.669 179.728H273.143C275.659 179.728 277.662 179.112 279.152 177.879C280.641 176.646 281.386 174.541 281.386 171.562C281.386 168.481 280.641 166.349 279.152 165.168C277.662 163.935 275.659 163.319 273.143 163.319H264.669V179.728ZM313.46 211.544C310.122 211.544 307.092 211.056 304.37 210.08C301.7 209.104 299.568 207.898 297.976 206.46C296.435 204.97 295.665 203.481 295.665 201.991C295.665 201.272 295.845 200.502 296.204 199.68C296.615 198.807 297.154 198.088 297.822 197.523C298.49 196.907 299.234 196.599 300.056 196.599C300.878 196.599 301.648 196.907 302.367 197.523C303.086 198.088 303.908 198.782 304.832 199.603C305.757 200.374 306.887 201.067 308.222 201.683C309.557 202.248 311.201 202.531 313.152 202.531C314.693 202.531 316.105 202.3 317.389 201.837C318.725 201.324 319.777 200.579 320.548 199.603C321.37 198.627 321.78 197.369 321.78 195.828C321.78 194.185 321.344 192.798 320.471 191.669C319.598 190.539 318.416 189.563 316.927 188.741C315.438 187.919 313.82 187.123 312.074 186.353C310.328 185.583 308.556 184.761 306.758 183.888C305.012 183.015 303.394 181.962 301.905 180.729C300.467 179.497 299.286 177.982 298.361 176.184C297.488 174.387 297.052 172.178 297.052 169.559C297.052 166.683 297.591 164.269 298.669 162.318C299.799 160.366 301.263 158.8 303.061 157.618C304.909 156.386 306.938 155.513 309.146 154.999C311.355 154.434 313.563 154.152 315.772 154.152C316.953 154.152 318.339 154.255 319.932 154.46C321.575 154.614 323.193 154.922 324.785 155.384C326.428 155.847 327.764 156.489 328.791 157.31C329.869 158.081 330.408 159.108 330.408 160.392C330.408 160.957 330.254 161.65 329.946 162.472C329.689 163.293 329.253 164.038 328.637 164.706C328.072 165.373 327.327 165.707 326.403 165.707C325.581 165.707 324.759 165.476 323.937 165.014C323.167 164.5 322.14 164.012 320.856 163.55C319.623 163.037 317.929 162.78 315.772 162.78C313.974 162.78 312.408 163.011 311.072 163.473C309.737 163.935 308.736 164.603 308.068 165.476C307.4 166.298 307.066 167.351 307.066 168.635C307.066 169.97 307.503 171.1 308.376 172.024C309.3 172.949 310.482 173.77 311.92 174.489C313.409 175.208 315.027 175.927 316.773 176.646C318.519 177.365 320.265 178.213 322.011 179.189C323.809 180.113 325.452 181.243 326.942 182.578C328.431 183.914 329.612 185.583 330.485 187.586C331.359 189.537 331.795 191.951 331.795 194.827C331.795 198.473 330.999 201.555 329.407 204.071C327.815 206.537 325.632 208.411 322.859 209.695C320.137 210.928 317.004 211.544 313.46 211.544Z" fill="#E7F8FC"/>
<defs>
<filter id="filter0_d_587_488" x="3" y="0.000488281" width="323.861" height="144.61" filterUnits="userSpaceOnUse" color-interpolation-filters="sRGB">
<feFlood flood-opacity="0" result="BackgroundImageFix"/>
<feColorMatrix in="SourceAlpha" type="matrix" values="0 0 0 0 0 0 0 0 0 0 0 0 0 0 0 0 0 0 127 0" result="hardAlpha"/>
<feOffset dx="2" dy="6"/>
<feGaussianBlur stdDeviation="2.5"/>
<feComposite in2="hardAlpha" operator="out"/>
<feColorMatrix type="matrix" values="0 0 0 0 0 0 0 0 0 0 0 0 0 0 0 0 0 0 0.3 0"/>
<feBlend mode="normal" in2="BackgroundImageFix" result="effect1_dropShadow_587_488"/>
<feBlend mode="normal" in="SourceGraphic" in2="effect1_dropShadow_587_488" result="shape"/>
</filter>
</defs>
</svg>
